<svg height="60" viewBox="0 0 60 60" width="60" xmlns="http://www.w3.org/2000/svg"><g fill="none" transform="translate(11.1621 .4453)"><path d="m37.6757812 18.9199219c0-10.40039065-8.4316406-18.9199219-18.8378906-18.9199219-10.40624998 0-18.8378906 8.51953125-18.8378906 18.9199219 0 4.1191406 2.18554688 9.4335937 5.6953125 13.3535156 3.48046875 3.8847656 6.0644531 10.4238281 6.0644531 15.6386719v2.0449218h14.15625v-2.0273437c0-5.2148438 2.5839844-11.7421875 6.046875-15.6386719 3.5214844-3.9609375 5.7128906-9.75 5.7128906-13.3710937z" fill="#ffc807"/><path d="m26.1328125 45.8789062-11.3613281-15.703125 9.0117187-18.7851562 11.671875 15.609375c-1.0195312 2.1328125-2.3027344 3.9492187-3.7441406 5.578125-2.71875 3.3632812-3.9609375 6.2988281-5.1386719 10.3945312z" fill="#ffb300"/><path d="m18.1054687 21.7207031h-4.8457031c-.7382812 0-1.2539062-.7441406-.984375-1.4355469l3.46875-8.9648437c.1582031-.4042969.5507813-.6738281.984375-.6738281h6.1523438c.796875 0 1.3066406.8496094.9316406 1.5527344l-4.7753906 8.9648437c-.1875.3398437-.5449219.5566406-.9316407.5566406z" fill="#fff8e1"/><path d="m16.1542969 29.9238281 9.375-10.0195312c.703125-.75.1699219-1.9746094-.8554688-1.9746094h-6.1523437c-.5097656 0-.9609375.328125-1.1191406.8144531l-3.2226563 10.0195313c-.3867187 1.1953125 1.1191406 2.0800781 1.9746094 1.1601562z" fill="#fff8e1"/><path d="m23.6191406 59.109375h-9.5625c-.3339844 0-.6386718-.2167969-.8203125-.5742188l-1.3007812-2.5898437h13.8046875l-1.3007813 2.5898437c-.1816406.3574219-.4863281.5742188-.8203125.5742188z" fill="#455a64"/><path d="m25.5 57h-13.3242187c-1.2949219 0-2.34960942-1.0488281-2.34960942-2.3496094v-9.5859375c0-1.2949219 1.04882812-2.3496093 2.34960942-2.3496093h13.3300781c1.2949218 0 2.3496094 1.0488281 2.3496094 2.3496093v9.5917969c-.0058594 1.2949219-1.0546876 2.34375-2.3554688 2.34375z" fill="#eceff1"/><path d="m20.4667969 46.9335938h-10.59375002v-2.109375h10.59375002c.5800781 0 1.0546875.4746093 1.0546875 1.0546874 0 .5859376-.4746094 1.0546876-1.0546875 1.0546876zm-10.59375002 1.8457031h17.92968752v2.109375h-17.92968752zm17.92968752 6.0644531h-9.9726563c-.5800781 0-1.0546875-.4746094-1.0546875-1.0546875s.4746094-1.0546875 1.0546875-1.0546875h9.9726563z" fill="#cfd8dc"/></g></svg>