<svg height="40" viewBox="0 0 53 40" width="53" xmlns="http://www.w3.org/2000/svg"><g fill="none" transform="translate(.792 .496)"><path d="m18.108 35.208h22.032c1.26 0 2.484.288 3.636.828l4.788 2.268c1.62.756 3.528-.432 3.528-2.232v-20.988c0-2.592-2.088-4.68-4.68-4.68h-29.304c-2.592 0-4.68 2.088-4.68 4.68v15.48c0 2.556 2.088 4.644 4.68 4.644z" fill="#7954e2"/><path d="m38.664 28.26h-25.092c-1.44 0-2.844.324-4.14.936l-5.436 2.592c-1.872.864-3.996-.468-3.996-2.52v-23.94c0-2.952 2.376-5.328 5.328-5.328h33.372c2.952 0 5.328 2.376 5.328 5.328v17.604c-.072 2.952-2.448 5.328-5.364 5.328z" fill="#b9a5ff"/><g fill="#fff"><circle cx="11.304" cy="14.148" r="2.916"/><circle cx="21.996" cy="14.148" r="2.916"/><circle cx="32.724" cy="14.148" r="2.916"/></g></g></svg>