<svg height="36" viewBox="0 0 36 36" width="36" xmlns="http://www.w3.org/2000/svg"><path d="m18 .7734375c-9.51398437 0-17.2265625 7.71257813-17.2265625 17.2265625 0 9.5139844 7.71257813 17.2265625 17.2265625 17.2265625 9.5139844 0 17.2265625-7.7125781 17.2265625-17.2265625 0-9.51398437-7.7125781-17.2265625-17.2265625-17.2265625zm9.1286719 13.0025391-10.2142969 10.2139453c-.4876172.4876172-1.2782813.4876172-1.7658984 0l-6.27714848-6.2771485c-.48761718-.4876172-.48761718-1.2782812 0-1.7658984.48761719-.4876172 1.27828128-.4876172 1.76589848 0l5.394375 5.394375 9.3311718-9.3311719c.4876172-.4876172 1.2782813-.4876172 1.7658985 0s.4876172 1.2782813 0 1.7658985z" fill="#20c328"/></svg>