<svg height="48" viewBox="0 0 46 48" width="46" xmlns="http://www.w3.org/2000/svg"><g fill="none"><path d="m6.45296494 5.10526316h28.37214546c4.310685 0 6.4529649 2.15789473 6.4529649 6.50000004v29.8947368c0 4.3421053-2.1422799 6.5-6.4529649 6.5h-28.37214546c-4.31068508 0-6.45296494-2.1578947-6.45296494-6.5v-29.8684211c0-4.34210522 2.14227986-6.52631574 6.45296494-6.52631574z" fill="#b9a5ff"/><path d="m6.87097076 35.4473684v-1.5789473c0-.8157895.39188046-1.2105264 1.20176675-1.2105264h25.15872559c.8098863 0 1.2017668.3947369 1.2017668 1.2105264v1.5789473c0 .8157895-.3918805 1.2105263-1.2017668 1.2105263h-25.15872559c-.80988629.0263158-1.20176675-.3947368-1.20176675-1.2105263z" fill="#e4e3ff"/><path d="m11.8870407 0h17.5301193c1.9332769 0 2.8999154.97368421 2.8999154 2.92105263v4.39473684c0 1.94736842-.9666385 2.92105263-2.8999154 2.92105263h-17.5301193c-1.93327697 0-2.89991545-.97368421-2.89991545-2.92105263v-4.39473684c0-1.94736842.96663848-2.92105263 2.89991545-2.92105263z" fill="#7954e2"/><path d="m6.89709613 26.3421053v-9.5789474c0-1.2368421.62700873-1.8684211 1.85490085-1.8684211h23.82633202c1.2278922 0 1.8549009.631579 1.8549009 1.8684211v9.5526316c0 1.2368421-.6270087 1.868421-1.8549009 1.868421h-23.82633202c-1.25401748 0-1.85490085-.6052631-1.85490085-1.8421052z" fill="#e4e3ff"/><path d="m44.8833755 16.9210526-2.586411-1.6842105c-1.0711399-.6578947-2.5341603-.368421-3.1611691.7368421l-1.6720233 2.5526316c-.2090029.368421-.1567522.868421.287379 1.0789474l5.1989475 3.1842105c.3657551.2105263.862137.1578947 1.0711399-.2105263l1.6720233-2.5526316c.6270088-.9736842.2612537-2.4473684-.8098863-3.1052632zm-19.1237665 21.6578948 5.1205714 3.1842105c.3657551.2105263.862137.1578947 1.149516-.2105263l10.3195188-16.2105263c.2090029-.3684211.1567522-.8684211-.287379-1.1578948l-5.1205713-3.1842105c-.3657551-.2105263-.8621371-.1578947-1.1495161.2105263l-10.3195188 16.2894737c-.2090029.3684211-.1567522.8684211.287379 1.0789474zm-1.3062682 9.1578947 5.2773236-3.5526316c.4963819-.368421.4441311-1.0263158 0-1.368421l-4.4674373-2.6842106c-.4963819-.2894736-1.149516 0-1.2278921.5789474l-.862137 6.3157895c-.0783761.6315789.7053848 1.1578947 1.2801428.7105263z" fill="#fff"/></g></svg>