<?xml version="1.0" encoding="UTF-8"?>
<svg width="64px" height="64px" viewBox="0 0 64 64" version="1.1" xmlns="http://www.w3.org/2000/svg" xmlns:xlink="http://www.w3.org/1999/xlink">
    <title>编组</title>
    <defs>
        <path d="M0,0 L1920,0 L1920,1080 L0,1080 L0,0 Z" id="path-1"></path>
    </defs>
    <g id="页面-1" stroke="none" stroke-width="1" fill="none" fill-rule="evenodd">
        <g id="06备份-7" transform="translate(-1193, -720)" xlink:href="#path-1">
            <path stroke="#979797" d="M1919.5,0.5 L1919.5,1079.5 L0.5,1079.5 L0.5,0.5 L1919.5,0.5 Z" stroke-linejoin="square"></path>
            <g id="编组" fill-rule="evenodd" transform="translate(1195, 722)">
                <path d="M60,30 C60,13.4375 46.5625,0 30,0 C13.4375,0 0,13.4375 0,30 C0,46.5625 13.4375,60 30,60 C46.5625,60 60,46.5625 60,30 Z" id="路径" stroke="#8871D8" stroke-width="4"></path>
                <line x1="25" y1="47.5" x2="35" y2="47.5" id="路径" stroke="#8871D8" stroke-width="4" stroke-linecap="round" stroke-linejoin="round"></line>
                <path d="M42.5,25.046875 L42.5,28.784375 C42.5,34.94375 36.159375,39.953125 30,39.953125 L30,39.953125 C23.840625,39.953125 17.5,34.94375 17.5,28.784375 L17.5,25.046875" id="路径" stroke="#8871D8" stroke-width="4" stroke-linecap="round" stroke-linejoin="round"></path>
                <line x1="30" y1="40" x2="30" y2="47.5" id="路径" stroke="#8871D8" stroke-width="4" stroke-linecap="round" stroke-linejoin="round"></line>
                <rect id="矩形" fill="#8871D8" fill-rule="nonzero" x="22.5" y="10" width="15" height="25" rx="7.5"></rect>
            </g>
        </g>
    </g>
</svg>