<svg height="52" viewBox="0 0 52 52" width="52" xmlns="http://www.w3.org/2000/svg"><g fill="none" transform="translate(1.7875 2.4556)"><path d="m21.9375 13.6319444c-.975 0-1.7875.325-2.4375.8125v-6.49999996h-13.8125c-3.25 0-5.6875 2.59999996-5.6875 5.68749996v13.8125h6.5c-.4875-.65-.8125-1.4625-.8125-2.4375 0-2.275 1.7875-4.0625 4.0625-4.0625s4.0625 1.7875 4.0625 4.0625c0 .975-.325 1.7875-.8125 2.4375h6.5v-6.5c.65.4875 1.4625.8125 2.4375.8125 2.275 0 4.0625-1.7875 4.0625-4.0625s-1.7875-4.0625-4.0625-4.0625z" fill="#ffbf00"/><path d="m43.225 19.6444444c-.4875-.8125-1.1375-1.3-1.95-1.625l5.6875-3.25-6.825-12.02499996c-1.625-2.6-5.0375-3.575-7.8-1.95l-12.025 6.9875 3.25 5.68749996c.325-.8125.975-1.4625 1.625-1.95 1.95-1.1375 4.3875-.4875 5.525 1.4625s.4875 4.3875-1.4625 5.525c-.8125.4875-1.625.65-2.6.4875l3.25 5.6875 5.6875-3.25c-.1625.8125 0 1.7875.4875 2.6 1.1375 1.95 3.575 2.6 5.525 1.4625 2.1125-1.3 2.7625-3.9 1.625-5.85z" fill="#217fff"/><path d="m17.0625 41.2569444c.975 0 1.7875-.325 2.4375-.8125v6.5h13.8125c3.0875 0 5.6875-2.6 5.6875-5.6875v-13.8125h-6.5c.4875.65.8125 1.4625.8125 2.4375 0 2.275-1.7875 4.0625-4.0625 4.0625s-4.0625-1.7875-4.0625-4.0625c0-.975.325-1.7875.8125-2.4375h-6.5v6.5c-.65-.4875-1.4625-.8125-2.4375-.8125-2.275 0-4.0625 1.7875-4.0625 4.0625s1.7875 4.0625 4.0625 4.0625z" fill="#2dcacf"/><path d="m5.6875 25.0069444c0 .975.325 1.7875.8125 2.4375h-6.5v13.8125c0 3.0875 2.6 5.6875 5.6875 5.6875h13.8125v-6.5c-.65.4875-1.4625.8125-2.4375.8125-2.275 0-4.0625-1.7875-4.0625-4.0625s1.7875-4.0625 4.0625-4.0625c.975 0 1.7875.325 2.4375.8125v-6.5h-6.5c.4875-.65.8125-1.4625.8125-2.4375 0-2.275-1.7875-4.0625-4.0625-4.0625s-4.0625 1.7875-4.0625 4.0625z" fill="#f85858"/></g></svg>