<svg height="50" viewBox="0 0 50 50" width="50" xmlns="http://www.w3.org/2000/svg"><path d="m11.3791992 45.9697754c-.921875.8713867-.921875 2.2810059.005127 3.1484375.9270019.8710937 2.4229492.8710937 3.3499511 0l23.9183594-22.4743652c.4671875-.4331055.6908692-1.0057129.6908692-1.5758301 0-.0483399-.0255372-.0888672-.0280762-.134668-.0102539-.238623-.0483399-.4776367-.1448242-.7009766-.0329102-.0738769-.0964844-.1271484-.1370606-.1955566-.1067383-.1879394-.2134277-.3811523-.3809082-.5436523l-23.9183105-22.47802738c-.927002-.86088867-2.4178223-.86088867-3.3499512.00258789-.927002.86855469-.927002 2.28076172 0 3.14941406l22.2390625 20.90073243-22.2442383 20.9018555z" fill="#e2e2e3"/></svg>