<svg height="50" viewBox="0 0 52 50" width="52" xmlns="http://www.w3.org/2000/svg"><g fill="none"><g fill="#f12a3f"><path d="m29.0276565 25.0957854c0 2.4521073-1.9679767 4.4444445-4.3901019 4.4444445s-4.3901019-1.9923372-4.3901019-4.4444445c0-2.4521072 1.9679767-4.4444444 4.3901019-4.4444444s4.3901019 1.9923372 4.3901019 4.4444444z"/><path d="m29.0276565 25.0957854c0 2.4521073-1.9679767 4.4444445-4.3901019 4.4444445s-4.3901019-1.9923372-4.3901019-4.4444445c0-2.4521072 1.9679767-4.4444444 4.3901019-4.4444444s4.3901019 1.9923372 4.3901019 4.4444444z"/><path d="m24.6375546.15325671c-13.6244542 0-24.6375546 11.14942529-24.6375546 24.94252869 0 13.7931035 11.0131004 24.9425288 24.6375546 24.9425288 13.6244541 0 24.6375546-11.1494253 24.6375546-24.9425288 0-13.7931034-11.0509462-24.94252869-24.6375546-24.94252869zm0 44.86590039c-10.8617176 0-19.67976712-8.9272031-19.67976712-19.9233717 0-10.9961685 8.81804952-19.92337161 19.67976712-19.92337161s19.6797671 8.92720311 19.6797671 19.92337161c0 10.9961686-8.8180495 19.9233717-19.6797671 19.9233717z"/></g><path d="m29.0276565 25.0957854c0 2.4521073-1.9679767 4.4444445-4.3901019 4.4444445s-4.3901019-1.9923372-4.3901019-4.4444445c0-2.4521072 1.9679767-4.4444444 4.3901019-4.4444444s4.3901019 1.9923372 4.3901019 4.4444444z" fill="#fefeff"/><path d="m24.6375546 5.17241379c-10.8617176 0-19.67976712 8.92720311-19.67976712 19.92337161 0 10.9961686 8.81804952 19.9233717 19.67976712 19.9233717s19.6797671-8.9272031 19.6797671-19.9233717c0-10.9961685-8.8180495-19.92337161-19.6797671-19.92337161zm0 34.86590041c-8.1368268 0-14.75982534-6.7049809-14.75982534-14.9425288s6.62299854-14.9425287 14.75982534-14.9425287 14.7598253 6.7049808 14.7598253 14.9425287-6.6229985 14.9425288-14.7598253 14.9425288z" fill="#fff"/><path d="m29.0276565 25.0957854c0 2.4521073-1.9679767 4.4444445-4.3901019 4.4444445s-4.3901019-1.9923372-4.3901019-4.4444445c0-2.4521072 1.9679767-4.4444444 4.3901019-4.4444444s4.3901019 1.9923372 4.3901019 4.4444444z" fill="#f12a3f"/><path d="m24.6375546 10.1532567c-8.1368268 0-14.75982534 6.7049808-14.75982534 14.9425287s6.62299854 14.9425288 14.75982534 14.9425288 14.7598253-6.7049809 14.7598253-14.9425288c0-8.275862-6.6229985-14.9425287-14.7598253-14.9425287zm0 23.8697318c-4.8820961 0-8.8180495-3.9846743-8.8180495-8.9272031 0-4.9425287 3.9359534-8.927203 8.8180495-8.927203s8.8180495 3.9846743 8.8180495 8.927203c0 4.9042146-3.9737992 8.9272031-8.8180495 8.9272031z" fill="#f12a3f"/><path d="m24.6375546 16.1685824c-4.8820961 0-8.8180495 3.9846743-8.8180495 8.927203 0 4.9425288 3.9359534 8.9272031 8.8180495 8.9272031s8.8180495-3.9846743 8.8180495-8.9272031c0-4.9425287-3.9737992-8.927203-8.8180495-8.927203zm0 13.3716475c-2.4221252 0-4.3901019-1.9923372-4.3901019-4.4444445 0-2.4521072 1.9679767-4.4444444 4.3901019-4.4444444s4.3901019 1.9923372 4.3901019 4.4444444c0 2.4521073-1.9679767 4.4444445-4.3901019 4.4444445z" fill="#fff"/><path d="m40.8733624 43.6398467c-.1513828 0-.3027656-.0766283-.4163027-.1915708l-16.4628821-17.816092c-.2270743-.229885-.1892285-.6130268.0378457-.8429119.2270742-.229885.6055313-.1915709.8326055.0383142l16.4628821 17.816092c.2270743.229885.1892285.6130268-.0378457.8429118-.1513828.0766284-.3027656.1532567-.4163028.1532567z" fill="#cc0e2a"/><g transform="translate(23.8019)"><path d="m16.2010256 7.04980843-2.6491994 2.33716475.26492 2.75862072 2.4978166-2.2988506zm5.3740903-7.04980843-4.7307133 4.21455939.4163028 4.86590038 4.5414847-4.13793103zm6.6229985 7.5862069-4.7307132 4.2145594-4.6928676-.9578544 4.5414848-4.13793106zm-7.455604 4.4061303-2.6491995 2.3371647-2.6113537-.4980843 2.573508-2.2605364z" fill="#fdb813"/><path d="m25.1326122 3.52490421c-.4541484-.49808429-1.2489082-.53639846-1.7030567-.07662835l-23.04803495 20.76628354s-.83260554.6896552-.03784571 1.6091954c.71906841.8429119 1.55167395.1532567 1.55167395.1532567l23.08588061-20.68965518c.5676856-.49808429.6055313-1.22605364.1513828-1.76245211z" fill="#1e2d4f"/></g></g></svg>