<svg height="36" viewBox="0 0 36 36" width="36" xmlns="http://www.w3.org/2000/svg"><path d="m-.00000003 17.9969727c-.00161275 9.9407552 8.0547545 17.9985841 17.99454363 18.0030273 9.9397891.0044196 18.0005926-8.0522008 18.0054564-17.9925532.0044702-4.772501-1.8896541-9.35122213-5.2655302-12.7284593-3.375876-3.37723717-7.9568361-5.27621104-12.7346833-5.2789875-9.93978907-.0008057-17.9981728 8.05621749-17.99978653 17.9969727zm27.28408703 7.0786546c.4683427.4762085.6057148 1.1867744.3486233 1.8032763-.2570914.6165019-.8585681 1.0188527-1.5264295 1.0210901-.4398028.0008214-.8615723-.1747624-1.1709018-.4874524l-6.9620534-7.0022117-7.071305 6.9782454c-.3084474.308159-.7268094.4809101-1.16277903.4801378-.66708031-.0084818-1.26429726-.415484-1.51624409-1.0333175-.25194683-.6178336-.10968488-1.3264892.36118171-1.7991702l7.07171111-6.9782454-6.98560942-7.081016c-.43896802-.4172243-.61729657-1.03966519-.46587345-1.62609232.15142312-.58642712.60879739-1.04466647 1.1948649-1.19712486.58606752-.15245839 1.20871077.02482741 1.62662107.46314934l6.9856094 7.08060974 7.0721173-6.97824534c.6560296-.62353401 1.6895702-.60992177 2.3289561.0306735.639386.64059527.6512155 1.67433034.0266564 2.32939434l-7.1074515 7.0334897z" fill="#e95964"/></svg>